<svg id="visual" viewBox="0 0 900 600" width="900" height="600" xmlns="http://www.w3.org/2000/svg" xmlns:xlink="http://www.w3.org/1999/xlink" version="1.1"><rect x="0" y="0" width="900" height="600" fill="#001220"></rect><path d="M0 448L21.5 442.7C43 437.3 86 426.7 128.8 419.8C171.7 413 214.3 410 257.2 406.2C300 402.3 343 397.7 385.8 391.3C428.7 385 471.3 377 514.2 385.5C557 394 600 419 642.8 422.7C685.7 426.3 728.3 408.7 771.2 403.7C814 398.7 857 406.3 878.5 410.2L900 414L900 601L878.5 601C857 601 814 601 771.2 601C728.3 601 685.7 601 642.8 601C600 601 557 601 514.2 601C471.3 601 428.7 601 385.8 601C343 601 300 601 257.2 601C214.3 601 171.7 601 128.8 601C86 601 43 601 21.5 601L0 601Z" fill="#a3903a"></path><path d="M0 447L21.5 443.7C43 440.3 86 433.7 128.8 441.2C171.7 448.7 214.3 470.3 257.2 473.2C300 476 343 460 385.8 449.5C428.7 439 471.3 434 514.2 441.8C557 449.7 600 470.3 642.8 467.8C685.7 465.3 728.3 439.7 771.2 436.3C814 433 857 452 878.5 461.5L900 471L900 601L878.5 601C857 601 814 601 771.2 601C728.3 601 685.7 601 642.8 601C600 601 557 601 514.2 601C471.3 601 428.7 601 385.8 601C343 601 300 601 257.2 601C214.3 601 171.7 601 128.8 601C86 601 43 601 21.5 601L0 601Z" fill="#88a551"></path><path d="M0 491L21.5 487.3C43 483.7 86 476.3 128.8 477.8C171.7 479.3 214.3 489.7 257.2 495.5C300 501.3 343 502.7 385.8 496.2C428.7 489.7 471.3 475.3 514.2 477.2C557 479 600 497 642.8 501.7C685.7 506.3 728.3 497.7 771.2 493.8C814 490 857 491 878.5 491.5L900 492L900 601L878.5 601C857 601 814 601 771.2 601C728.3 601 685.7 601 642.8 601C600 601 557 601 514.2 601C471.3 601 428.7 601 385.8 601C343 601 300 601 257.2 601C214.3 601 171.7 601 128.8 601C86 601 43 601 21.5 601L0 601Z" fill="#63b878"></path><path d="M0 566L21.5 566C43 566 86 566 128.8 560.2C171.7 554.3 214.3 542.7 257.2 537.5C300 532.3 343 533.7 385.8 537.8C428.7 542 471.3 549 514.2 552.8C557 556.7 600 557.3 642.8 554.2C685.7 551 728.3 544 771.2 544.5C814 545 857 553 878.5 557L900 561L900 601L878.5 601C857 601 814 601 771.2 601C728.3 601 685.7 601 642.8 601C600 601 557 601 514.2 601C471.3 601 428.7 601 385.8 601C343 601 300 601 257.2 601C214.3 601 171.7 601 128.8 601C86 601 43 601 21.5 601L0 601Z" fill="#24c7a9"></path></svg>