<svg id="visual" viewBox="0 0 900 600" width="900" height="600" xmlns="http://www.w3.org/2000/svg" xmlns:xlink="http://www.w3.org/1999/xlink" version="1.1"><rect x="0" y="0" width="900" height="600" fill="#001220"></rect><path d="M0 303L21.5 301.7C43 300.3 86 297.7 128.8 307.8C171.7 318 214.3 341 257.2 354.2C300 367.3 343 370.7 385.8 369.8C428.7 369 471.3 364 514.2 351.3C557 338.7 600 318.3 642.8 304.8C685.7 291.3 728.3 284.7 771.2 298.2C814 311.7 857 345.3 878.5 362.2L900 379L900 601L878.5 601C857 601 814 601 771.2 601C728.3 601 685.7 601 642.8 601C600 601 557 601 514.2 601C471.3 601 428.7 601 385.8 601C343 601 300 601 257.2 601C214.3 601 171.7 601 128.8 601C86 601 43 601 21.5 601L0 601Z" fill="#fa7268"></path><path d="M0 352L21.5 365.5C43 379 86 406 128.8 420.7C171.7 435.3 214.3 437.7 257.2 421.7C300 405.7 343 371.3 385.8 373.3C428.7 375.3 471.3 413.7 514.2 424C557 434.3 600 416.7 642.8 415.5C685.7 414.3 728.3 429.7 771.2 425C814 420.3 857 395.7 878.5 383.3L900 371L900 601L878.5 601C857 601 814 601 771.2 601C728.3 601 685.7 601 642.8 601C600 601 557 601 514.2 601C471.3 601 428.7 601 385.8 601C343 601 300 601 257.2 601C214.3 601 171.7 601 128.8 601C86 601 43 601 21.5 601L0 601Z" fill="#eb5967"></path><path d="M0 403L21.5 411.3C43 419.7 86 436.3 128.8 443.5C171.7 450.7 214.3 448.3 257.2 443.2C300 438 343 430 385.8 436.7C428.7 443.3 471.3 464.7 514.2 470.2C557 475.7 600 465.3 642.8 455.5C685.7 445.7 728.3 436.3 771.2 443.3C814 450.3 857 473.7 878.5 485.3L900 497L900 601L878.5 601C857 601 814 601 771.2 601C728.3 601 685.7 601 642.8 601C600 601 557 601 514.2 601C471.3 601 428.7 601 385.8 601C343 601 300 601 257.2 601C214.3 601 171.7 601 128.8 601C86 601 43 601 21.5 601L0 601Z" fill="#da3f67"></path><path d="M0 479L21.5 479.5C43 480 86 481 128.8 486.3C171.7 491.7 214.3 501.3 257.2 500.5C300 499.7 343 488.3 385.8 483.8C428.7 479.3 471.3 481.7 514.2 482.2C557 482.7 600 481.3 642.8 481.5C685.7 481.7 728.3 483.3 771.2 487.7C814 492 857 499 878.5 502.5L900 506L900 601L878.5 601C857 601 814 601 771.2 601C728.3 601 685.7 601 642.8 601C600 601 557 601 514.2 601C471.3 601 428.7 601 385.8 601C343 601 300 601 257.2 601C214.3 601 171.7 601 128.8 601C86 601 43 601 21.5 601L0 601Z" fill="#c62368"></path></svg>