<svg id="visual" viewBox="0 0 900 600" width="900" height="600" xmlns="http://www.w3.org/2000/svg" xmlns:xlink="http://www.w3.org/1999/xlink" version="1.1"><rect x="0" y="0" width="900" height="600" fill="#001220"></rect><path d="M0 449L21.5 445.8C43 442.7 86 436.3 128.8 422.8C171.7 409.3 214.3 388.7 257.2 390.5C300 392.3 343 416.7 385.8 417.8C428.7 419 471.3 397 514.2 392C557 387 600 399 642.8 398.7C685.7 398.3 728.3 385.7 771.2 386.2C814 386.7 857 400.3 878.5 407.2L900 414L900 601L878.5 601C857 601 814 601 771.2 601C728.3 601 685.7 601 642.8 601C600 601 557 601 514.2 601C471.3 601 428.7 601 385.8 601C343 601 300 601 257.2 601C214.3 601 171.7 601 128.8 601C86 601 43 601 21.5 601L0 601Z" fill="#3a80a3"></path><path d="M0 480L21.5 474C43 468 86 456 128.8 455.5C171.7 455 214.3 466 257.2 460.8C300 455.7 343 434.3 385.8 422.5C428.7 410.7 471.3 408.3 514.2 407.3C557 406.3 600 406.7 642.8 409.5C685.7 412.3 728.3 417.7 771.2 422.3C814 427 857 431 878.5 433L900 435L900 601L878.5 601C857 601 814 601 771.2 601C728.3 601 685.7 601 642.8 601C600 601 557 601 514.2 601C471.3 601 428.7 601 385.8 601C343 601 300 601 257.2 601C214.3 601 171.7 601 128.8 601C86 601 43 601 21.5 601L0 601Z" fill="#4a76b3"></path><path d="M0 511L21.5 508.8C43 506.7 86 502.3 128.8 501.8C171.7 501.3 214.3 504.7 257.2 504.5C300 504.3 343 500.7 385.8 492.2C428.7 483.7 471.3 470.3 514.2 468.3C557 466.3 600 475.7 642.8 478C685.7 480.3 728.3 475.7 771.2 473.2C814 470.7 857 470.3 878.5 470.2L900 470L900 601L878.5 601C857 601 814 601 771.2 601C728.3 601 685.7 601 642.8 601C600 601 557 601 514.2 601C471.3 601 428.7 601 385.8 601C343 601 300 601 257.2 601C214.3 601 171.7 601 128.8 601C86 601 43 601 21.5 601L0 601Z" fill="#7a64b2"></path><path d="M0 537L21.5 529.7C43 522.3 86 507.7 128.8 507.8C171.7 508 214.3 523 257.2 521.7C300 520.3 343 502.7 385.8 496C428.7 489.3 471.3 493.7 514.2 495C557 496.3 600 494.7 642.8 499.8C685.7 505 728.3 517 771.2 517C814 517 857 505 878.5 499L900 493L900 601L878.5 601C857 601 814 601 771.2 601C728.3 601 685.7 601 642.8 601C600 601 557 601 514.2 601C471.3 601 428.7 601 385.8 601C343 601 300 601 257.2 601C214.3 601 171.7 601 128.8 601C86 601 43 601 21.5 601L0 601Z" fill="#a94898"></path><path d="M0 534L21.5 535.7C43 537.3 86 540.7 128.8 544.8C171.7 549 214.3 554 257.2 551.2C300 548.3 343 537.7 385.8 539.2C428.7 540.7 471.3 554.3 514.2 556.8C557 559.3 600 550.7 642.8 543.7C685.7 536.7 728.3 531.3 771.2 532.8C814 534.3 857 542.7 878.5 546.8L900 551L900 601L878.5 601C857 601 814 601 771.2 601C728.3 601 685.7 601 642.8 601C600 601 557 601 514.2 601C471.3 601 428.7 601 385.8 601C343 601 300 601 257.2 601C214.3 601 171.7 601 128.8 601C86 601 43 601 21.5 601L0 601Z" fill="#c62368"></path></svg>